{"title":"Yes We Can! The Lost Art Of Oratory.thebox.hannibal.avi","uid":4870109,"size":569696256,"categoryP":"video","categoryS":"tv_shows","magnet":"?xt=urn:btih:e216573adfba0a7cc830d0365fe39b04b623c779&amp;dn=Yes+We+Can%21+The+Lost+Art+Of+Oratory.thebox.hannibal.avi&amp;tr=udp%3A%2F%2Ftracker.openbittorrent.com%3A80&amp;tr=udp%3A%2F%2Fopen.demonii.com%3A1337&amp;tr=udp%3A%2F%2Ftracker.coppersurfer.tk%3A6969&amp;tr=udp%3A%2F%2Fexodus.desync.com%3A6969","seeders":1,"leechers":0,"uploader":"maan1234","files":1,"time":1240758226,"description":"The remarkable election of Barack Obama to the presidency of the United States has been propelled as much by his exceptional skill as an orator as by any other factor.\n\nFrom the silver-tongued to the tongue-tied, the sublime to the ridiculous, this programme takes a fond look at the art and history of the political speech.\n\nAlan Yentob joins the crowds at the inauguration in Washington, and traces the awesome power of orators from Cicero onwards, via Cromwell, Lincoln, Churchill, Hitler, Martin Luther King and many others.\n\nAmong the contributors are Bill Clinton, Jesse Jackson, Bob Geldof, Neil Kinnock, Ted Sorensen, Tony Benn, William Hague, Geoffrey Howe, Diane Abbott, Charlotte Higgins, Alastair Campbell and Germaine Greer.\n\nWhat makes a good speech great? How much is content, how much is presentation? And has Obama brought eloquence back to 21st-century politics for good?\n\nGeneral\nComplete name                    : Yes We Can! The Lost Art Of Oratory.thebox.hannibal.avi\nFormat                           : AVI\nFormat/Info                      : Audio Video Interleave\nFile size                        : 543 MiB\nDuration                         : 1h 9mn\nOverall bit rate                 : 1 095 Kbps\nWriting application              : VirtualDubMod 1.5.10.2 (build 2540/release)\nWriting library                  : VirtualDubMod build 2540/release\n\nVideo\nFormat                           : MPEG-4 Visual\nFormat profile                   : Streaming Video@L1\nFormat settings, BVOP            : Yes\nFormat settings, QPel            : No\nFormat settings, GMC             : No warppoints\nFormat settings, Matrix          : Default (H.263)\nMuxing mode                      : Packed bitstream\nCodec ID                         : XVID\nCodec ID/Hint                    : XviD\nDuration                         : 1h 9mn\nBit rate                         : 957 Kbps\nWidth                            : 608 pixels\nHeight                           : 336 pixels\nDisplay aspect ratio             : 16/9\nFrame rate                       : 25.000 fps\nResolution                       : 24 bits\nColorimetry                      : 4:2:0\nScan type                        : Progressive\nBits/(Pixel*Frame)               : 0.187\nStream size                      : 475 MiB (87%)\nWriting library                  : XviD 1.0.3 (UTC 2004-12-20)\n\nAudio\nFormat                           : MPEG Audio\nFormat version                   : Version 1\nFormat profile                   : Layer 3\nCodec ID                         : 55\nCodec ID/Hint                    : MP3\nDuration                         : 1h 9mn\nBit rate mode                    : Constant\nBit rate                         : 128 Kbps\nChannel(s)                       : 2 channels\nSampling rate                    : 48.0 KHz\nResolution                       : 16 bits\nStream size                      : 63.5 MiB (12%)\nAlignment                        : Aligned on interleaves\nInterleave, duration             : 40 ms (1.00 video frame)\nInterleave, preload duration     : 504 ms","torrent":{"xt":"urn:btih:e216573adfba0a7cc830d0365fe39b04b623c779","amp;dn":"Yes+We+Can%21+The+Lost+Art+Of+Oratory.thebox.hannibal.avi","amp;tr":["udp%3A%2F%2Ftracker.openbittorrent.com%3A80","udp%3A%2F%2Fopen.demonii.com%3A1337","udp%3A%2F%2Ftracker.coppersurfer.tk%3A6969","udp%3A%2F%2Fexodus.desync.com%3A6969"],"infoHash":"e216573adfba0a7cc830d0365fe39b04b623c779","infoHashBuffer":{"type":"Buffer","data":[226,22,87,58,223,186,10,124,200,48,208,54,95,227,155,4,182,35,199,121]},"announce":[],"urlList":[]}}